<svg width="800" height="600" xmlns="http://www.w3.org/2000/svg" viewBox="0 0 800 600" preserveAspectRatio="none">
  <rect width="800" height="600" fill="#3B82F6"></rect>
  <g>
    <!-- Person silhouette -->
    <circle cx="400" cy="200" r="80" fill="#FFFFFF" />
    <rect x="350" y="280" width="100" height="180" rx="20" fill="#FFFFFF" />
    <rect x="320" y="300" width="30" height="100" rx="10" fill="#FFFFFF" transform="rotate(-10, 320, 300)" />
    <rect x="450" y="300" width="30" height="100" rx="10" fill="#FFFFFF" transform="rotate(10, 450, 300)" />
    <rect x="370" y="460" width="30" height="100" rx="10" fill="#FFFFFF" />
    <rect x="400" y="460" width="30" height="100" rx="10" fill="#FFFFFF" />
    
    <!-- Map outline -->
    <rect x="280" y="350" width="80" height="110" rx="10" fill="#FFFFFF" opacity="0.8" />
    <line x1="290" y1="370" x2="350" y2="370" stroke="#3B82F6" stroke-width="4" />
    <line x1="290" y1="390" x2="350" y2="390" stroke="#3B82F6" stroke-width="4" />
    <line x1="290" y1="410" x2="350" y2="410" stroke="#3B82F6" stroke-width="4" />
    <line x1="290" y1="430" x2="350" y2="430" stroke="#3B82F6" stroke-width="4" />
    <circle cx="320" cy="380" r="8" fill="#EF4444" />
    <circle cx="310" cy="420" r="8" fill="#EF4444" />
    
    <!-- Text -->
    <text x="400" y="520" font-family="Arial, Helvetica, sans-serif" font-size="40" font-weight="bold" fill="#FFFFFF" text-anchor="middle">Tour Guide</text>
  </g>
</svg> 